<?xml version="1.0" standalone="no"?><!DOCTYPE svg PUBLIC "-//W3C//DTD SVG 1.1//EN" "http://www.w3.org/Graphics/SVG/1.1/DTD/svg11.dtd"><svg t="1617340843168" class="icon" viewBox="0 0 1024 1024" version="1.1" xmlns="http://www.w3.org/2000/svg" p-id="9747" xmlns:xlink="http://www.w3.org/1999/xlink" width="32" height="32"><defs><style type="text/css"></style></defs><path d="M920.064 594.944l-405.504 405.504 0.512 0.512 423.936-423.936 2.048-2.048-20.992 19.968zM941.056 573.952c110.592-113.152 110.08-294.912-2.56-407.552-113.152-113.152-296.96-113.152-410.112 0l-14.336 14.336 389.12 389.12s22.528 19.968 37.888 4.096z" fill="#CB522E" p-id="9748"></path><path d="M514.56 180.736l-14.336-14.336c-113.152-113.152-296.96-113.152-410.112 0-113.152 113.152-113.152 296.96 0 410.112l423.936 423.936 0.512-0.512-409.6-409.6 409.6-409.6zM941.056 573.952c0 0.512 0 0.512 0 0l1.024-1.024c0 0.512-0.512 1.024-1.024 1.024z" fill="#5161C4" p-id="9749"></path><path d="M903.168 569.856l-389.12-389.12-409.6 409.6 409.6 409.6 405.504-405.504 20.48-20.48 0.512-0.512c-14.848 16.384-37.376-3.584-37.376-3.584z" fill="#3E3E9B" p-id="9750"></path></svg>