<?xml version="1.0" standalone="no"?><!DOCTYPE svg PUBLIC "-//W3C//DTD SVG 1.1//EN" "http://www.w3.org/Graphics/SVG/1.1/DTD/svg11.dtd"><svg t="1618306151950" class="icon" viewBox="0 0 1024 1024" version="1.1" xmlns="http://www.w3.org/2000/svg" p-id="836" xmlns:xlink="http://www.w3.org/1999/xlink" width="32" height="32"><defs><style type="text/css"></style></defs><path d="M429.056 920.064l-405.504-405.504-0.512 0.512 423.936 423.936 2.048 2.048-19.968-20.992zM450.048 941.056c113.152 110.592 294.912 110.08 407.552-2.56 113.152-113.152 113.152-296.96000001 0-410.112l-14.336-14.336-389.12 389.12s-19.968 22.528-4.096 37.888z" fill="#CB522E" p-id="837"></path><path d="M843.264 514.56l14.336-14.336c113.152-113.152 113.152-296.96000001 0-410.112-113.152-113.152-296.96000001-113.152-410.112 0l-423.936 423.936 0.512 0.51199999 409.59999999-409.59999999 409.60000001 409.6zM450.048 941.056c-0.512 0-0.512 0 0 0l1.024 1.024c-0.512 0-1.024-0.512-1.024-1.024z" fill="#5161C4" p-id="838"></path><path d="M454.144 903.168l389.12-389.12-409.6-409.60000001-409.6 409.60000001 405.504 405.504 20.48 20.48 0.512 0.512c-16.384-14.848 3.584-37.376 3.584-37.376z" fill="#3E3E9B" p-id="839"></path></svg>