<?xml version="1.0" standalone="no"?><!DOCTYPE svg PUBLIC "-//W3C//DTD SVG 1.1//EN" "http://www.w3.org/Graphics/SVG/1.1/DTD/svg11.dtd"><svg t="1617267099293" class="icon" viewBox="0 0 1024 1024" version="1.1" xmlns="http://www.w3.org/2000/svg" p-id="9542" xmlns:xlink="http://www.w3.org/1999/xlink" width="32" height="32"><defs><style type="text/css"></style></defs><path d="M876.544 229.888l-343.04 91.648c-3.584 1.024-7.68 1.536-11.264 1.536s-8.192-0.512-11.776-1.536l-345.088-91.648c-18.944-5.12-34.816-22.528-34.816-41.984v761.856c0 31.744 26.112 57.856 57.856 57.856H849.92c31.744 0 57.856-26.112 57.856-57.856V187.904c0 19.968-12.288 37.376-31.232 41.984z" fill="#5161C4" p-id="9543"></path><path d="M866.816 1.024h-688.128c-24.064 0-48.64 25.6-48.64 49.664v64.512h777.216v-64.512c0.512-24.064-16.384-49.664-40.448-49.664z" fill="#CB522E" p-id="9544"></path><path d="M130.048 115.2v73.216c0 19.456 15.872 36.864 34.816 41.984l345.088 91.648c3.584 1.024 8.192 1.536 11.776 1.536s7.68-0.512 11.264-1.536l343.04-91.648c18.944-5.12 31.232-22.528 31.232-41.984v-73.216h-777.216z" fill="#3E3E9B" p-id="9545"></path><path d="M660.48 619.52h-92.16v-56.32h92.16c22.528 0 40.96-18.432 40.96-40.96s-18.432-40.96-40.96-40.96h-50.176l58.88-65.536c14.336-17.408 12.288-40.448-5.12-55.296-17.408-14.336-43.008-10.752-57.856 6.656l-83.456 100.352-83.456-99.328c-14.336-17.408-40.448-19.456-57.856-5.12-17.408 14.336-19.456 35.328-5.12 52.736L435.2 481.28h-50.176c-22.528 0-40.96 18.432-40.96 40.96s18.432 40.96 40.96 40.96h101.376v56.32h-101.376c-22.528 0-40.96 18.432-40.96 40.96s18.432 40.96 40.96 40.96h101.376v105.984c0 22.528 18.432 40.96 40.96 40.96s40.96-18.432 40.96-40.96V701.44h92.16c22.528 0 40.96-18.432 40.96-40.96s-18.432-40.96-40.96-40.96z" fill="#FFFFFF" p-id="9546"></path></svg>