<?xml version="1.0" standalone="no"?><!DOCTYPE svg PUBLIC "-//W3C//DTD SVG 1.1//EN" "http://www.w3.org/Graphics/SVG/1.1/DTD/svg11.dtd"><svg t="1617691361328" class="icon" viewBox="0 0 1024 1024" version="1.1" xmlns="http://www.w3.org/2000/svg" p-id="1223" xmlns:xlink="http://www.w3.org/1999/xlink" width="32" height="32"><defs><style type="text/css"></style></defs><path d="M95.744 975.872c-0.512 17.92 13.312 32.768 30.72 33.28 4.096 0 8.704-0.512 12.8-2.048l372.736-142.848-416.256-159.744v271.36zM928.256 111.104c0-53.248-43.008-96.256-96.256-96.256 53.248 0.512 96.256 43.52 96.256 96.256v592.896-592.896z" fill="#CB522E" p-id="1224"></path><path d="M884.736 1006.592c4.096 1.536 8.192 2.048 12.8 2.048 17.92-0.512 31.232-15.36 30.72-33.28v-271.36l-416.256 159.744 372.736 142.848zM192 15.36c-53.248 0-96.256 43.008-96.256 96.256v592.896-593.408c0-52.736 43.008-95.744 96.256-95.744z" fill="#5161C4" p-id="1225"></path><path d="M832 15.36h-640.512c-53.248 0-96.256 43.008-96.256 96.256v592.896l416.256 159.744 416.256-159.744V111.104c0.512-52.736-42.496-95.744-95.744-95.744z m-143.872 223.744h-352.256c-32.256 0-48.128-15.872-48.128-48.128 0-32.256 15.872-48.128 48.128-48.128h352.256c32.256 0 48.128 15.872 48.128 48.128 0 32.256-16.384 48.128-48.128 48.128z" fill="#333333" p-id="1226" data-spm-anchor-id="a313x.7781069.0.i2" class="selected"></path></svg>